# xmcd CD database file
#
# Track frame offsets:
#	150
#	21761
#	34692
#	66143
#	89107
#	113125
#	137627
#	170443
#	193805
#	230964
#
# Disc length: 3444 seconds
#
# Revision: 2
# Processed by: cddbd v1.5.1PL2 Copyright (c) Steve Scherf et al.
# Submitted via: CDex 1.70beta1
#
DISCID=8e0d720a
DTITLE=Filipe Melo Trio - Debut
DYEAR=2005
DGENRE=Jazz
TTITLE0=Debut
TTITLE1=I Got Rythm
TTITLE2=Pensativa
TTITLE3=Isn't She Lovely
TTITLE4=Strictly Confidential
TTITLE5=Jingles
TTITLE6=That Old Feeling
TTITLE7=Sweet Georgia Brown
TTITLE8=Jessica's Day
TTITLE9=Memories Of You
EXTD=YEAR: 2005
EXTT0=
EXTT1=
EXTT2=
EXTT3=
EXTT4=
EXTT5=
EXTT6=
EXTT7=
EXTT8=
EXTT9=
PLAYORDER=
